<svg xmlns="http://www.w3.org/2000/svg" width="128" height="128" viewBox="0 0 64 64"><defs><linearGradient id="ink" x2="0" y2="1"><stop stop-color="#f6d892"/><stop offset="1" stop-color="#b98643"/></linearGradient></defs><path d="M32 51 L14 33 Q4 15 20 14 Q28 13 32 22 Q38 9 48 16 Q60 26 47 38 Z M18 31 L25 31 L28 25 L33 39 L38 29 L46 29" fill="none" stroke="#130c06" stroke-width="5.3" stroke-linecap="round" stroke-linejoin="round"/><path d="M32 51 L14 33 Q4 15 20 14 Q28 13 32 22 Q38 9 48 16 Q60 26 47 38 Z M18 31 L25 31 L28 25 L33 39 L38 29 L46 29" fill="none" stroke="url(#ink)" stroke-width="2.8" stroke-linecap="round" stroke-linejoin="round"/><path d="M32 51 L14 33 Q4 15 20 14 Q28 13 32 22 Q38 9 48 16 Q60 26 47 38 Z M18 31 L25 31 L28 25 L33 39 L38 29 L46 29" fill="none" stroke="#ffe8b1" opacity=".32" transform="translate(-.45,-.5)" stroke-width=".7" stroke-linecap="round"/></svg>